<svg width="31" height="20" viewBox="0 0 31 20" fill="none" xmlns="http://www.w3.org/2000/svg">
<path d="M0.8415 10.024C0.8415 8.256 1.224 6.6835 1.989 5.3065C2.754 3.9125 3.8165 2.833 5.1765 2.068C6.5535 1.286 8.109 0.894999 9.843 0.894999C11.968 0.894999 13.787 1.456 15.3 2.578C16.813 3.7 17.8245 5.23 18.3345 7.168H13.5405C13.1835 6.42 12.6735 5.8505 12.0105 5.4595C11.3645 5.0685 10.625 4.873 9.792 4.873C8.449 4.873 7.361 5.3405 6.528 6.2755C5.695 7.2105 5.2785 8.46 5.2785 10.024C5.2785 11.588 5.695 12.8375 6.528 13.7725C7.361 14.7075 8.449 15.175 9.792 15.175C10.625 15.175 11.3645 14.9795 12.0105 14.5885C12.6735 14.1975 13.1835 13.628 13.5405 12.88H18.3345C17.8245 14.818 16.813 16.348 15.3 17.47C13.787 18.575 11.968 19.1275 9.843 19.1275C8.109 19.1275 6.5535 18.745 5.1765 17.98C3.8165 17.198 2.754 16.1185 1.989 14.7415C1.224 13.3645 0.8415 11.792 0.8415 10.024Z" fill="#00A3FF"/>
<path d="M19.5972 2.90265C19.5972 1.85185 20.3212 1 21.2144 1H28.6348C29.528 1 30.252 1.85185 30.252 2.90265C30.252 3.95346 29.528 4.80531 28.6348 4.80531H21.2144C20.3212 4.80531 19.5972 3.95346 19.5972 2.90265Z" fill="#00A3FF"/>
<path d="M19.5972 9.95367C19.5972 8.96467 20.2786 8.16294 21.1193 8.16294H26.637C27.4776 8.16294 28.1591 8.96467 28.1591 9.95367C28.1591 10.9427 27.4776 11.7444 26.637 11.7444H21.1193C20.2786 11.7444 19.5972 10.9427 19.5972 9.95367Z" fill="#00A3FF"/>
<path d="M19.5972 17.0047C19.5972 15.9539 20.3212 15.102 21.2144 15.102H28.6348C29.528 15.102 30.252 15.9539 30.252 17.0047C30.252 18.0555 29.528 18.9073 28.6348 18.9073H21.2144C20.3212 18.9073 19.5972 18.0555 19.5972 17.0047Z" fill="#00A3FF"/>
</svg>
